<svg xmlns="http://www.w3.org/2000/svg" width="639.999" height="639.999" fill-rule="evenodd" clip-rule="evenodd" image-rendering="optimizeQuality" shape-rendering="geometricPrecision" text-rendering="geometricPrecision" viewBox="0 0 16933.32 16933.32"><defs><mask id="id0"><linearGradient id="id1" x1="5002.92" x2="2324.16" y1="7175.39" y2="9318.54" gradientUnits="userSpaceOnUse"><stop offset="0" stop-color="#fff"/><stop offset="1" stop-color="#fff" stop-opacity="0"/></linearGradient><path fill="url(#id1)" d="M3121.89 7429.76h1917.3v930.82h-1917.3z"/></mask><mask id="id2"><linearGradient id="id3" x1="2558.75" x2="4513.82" y1="8915.43" y2="6807.51" gradientUnits="userSpaceOnUse"><stop offset="0" stop-color="#fff"/><stop offset="1" stop-color="#fff" stop-opacity="0"/></linearGradient><path fill="url(#id3)" d="M1853.24 7333.91h2749.51v2212.28H1853.24z"/></mask><mask id="id4"><linearGradient id="id5" x1="2814.54" x2="5710.92" y1="9926.95" y2="8333.94" gradientUnits="userSpaceOnUse"><stop offset="0" stop-color="#fff"/><stop offset="1" stop-color="#fff" stop-opacity="0"/></linearGradient><path fill="url(#id5)" d="M2573.89 8572.73h1917.3v930.82h-1917.3z"/></mask><mask id="id6"><linearGradient id="id7" x1="5374.7" x2="3604.69" y1="8167.19" y2="9888.94" gradientUnits="userSpaceOnUse"><stop offset="0" stop-color="#fff"/><stop offset="1" stop-color="#fff" stop-opacity="0"/></linearGradient><path fill="url(#id7)" d="M3010.05 7387.12h2749.8V9599.4h-2749.8z"/></mask><style>.fil2{fill:#38537d}.fil1{fill:#7d92b0}</style></defs><g id="Слой_x0020_1"><path fill="#49638a" fill-rule="nonzero" d="M6072.29 8073.6h361.87c117.54 0 212.85 30.24 278.86 85.38 66.1 55.22 102.68 135.19 102.68 234.58 0 98.91-36.7 178.97-102.99 234.37-66 55.12-161.2 85.59-278.55 85.59h-184.32c-3.84 0-7.11 3.27-7.11 7.1v239.61c0 3.85-3.25 7.1-7.1 7.1h-163.34c-3.84 0-7.11-3.18-7.11-7.1v-879.54c0-3.92 3.2-7.09 7.11-7.09zm5812 893.65h-383.89c-4.05 0-7.36-3.31-7.36-7.36v-878.7c0-4.06 3.31-7.35 7.36-7.35h383.89c71.43 0 137.36 10.94 196.12 31.47 60.22 21.01 112.89 52.15 156.26 91.87 43.29 39.66 77.3 87.9 100.3 143.21 22.39 53.82 34.37 114.32 34.37 180.16 0 65.83-11.98 126.34-34.37 180.15-23 55.3-57.01 103.54-100.3 143.2-43.37 39.73-96.04 70.85-156.26 91.89-58.76 20.53-124.69 31.46-196.12 31.46zm-216.35-736.36v579.3c0 4.05 3.31 7.36 7.36 7.36h201.42c48.03 0 91.8-7.21 130.43-20.75 39.3-13.79 73.41-34.22 101.35-60.3 27.94-26.1 49.76-57.92 64.48-94.54 14.5-36 22.18-76.77 22.18-121.41 0-44.66-7.68-85.41-22.18-121.44-14.72-36.61-36.54-68.44-64.48-94.53-27.94-26.08-62.05-46.49-101.35-60.28-38.63-13.57-82.4-20.77-130.43-20.77h-201.42c-4.05 0-7.36 3.3-7.36 7.36zm1713.51 736.36h-164.54c-2.99 0-5.55-1.69-6.75-4.43-172.53-399.26-95.89-224.87-296.49-689.93-1.2-2.76-3.77-4.45-6.77-4.44-3.01 0-5.58 1.7-6.76 4.46-179.09 418.34-145.99 339.27-295.31 689.87-1.2 2.78-3.74 4.47-6.77 4.47h-164.82c-2.57 0-4.79-1.2-6.18-3.36-1.39-2.15-1.58-4.66-.54-7 131.77-292.94 263.51-585.87 395.43-878.73 1.21-2.68 3.74-4.32 6.69-4.32h158.98c2.95 0 5.48 1.62 6.7 4.32 131.99 293.01 264.44 585.81 396.66 878.71 1.06 2.34.87 4.85-.52 7.02-1.4 2.16-3.61 3.36-6.18 3.36h-2.83zm440.96 0h-158.36c-4.05 0-7.36-3.31-7.36-7.36v-729c0-4.06-3.29-7.36-7.34-7.36h-277.74c-4.07 0-7.36-3.3-7.36-7.35v-134.99c0-4.06 3.29-7.35 7.36-7.35h745.08c4.05 0 7.36 3.29 7.36 7.35v134.99c0 4.05-3.31 7.35-7.36 7.35h-277.73c-4.06 0-7.37 3.3-7.37 7.36v729c0 4.05-3.29 7.36-7.34 7.36h-1.84zm1229.82 0h-164.56c-2.98 0-5.55-1.69-6.75-4.43-168.13-389.16-100.15-234.76-296.47-689.93-1.2-2.76-3.77-4.45-6.77-4.45-3.01 0-5.57 1.71-6.75 4.47-177 413.45-147.8 343.49-295.31 689.87-1.18 2.78-3.75 4.47-6.78 4.47H14104c-2.57 0-4.77-1.2-6.16-3.36-1.41-2.15-1.6-4.66-.53-7 131.76-292.94 263.5-585.87 395.42-878.73 1.2-2.68 3.73-4.32 6.69-4.32h158.97c2.95 0 5.48 1.62 6.69 4.32 131.99 293.01 264.44 585.81 396.68 878.71 1.07 2.34.88 4.85-.51 7.02-1.41 2.16-3.62 3.36-6.2 3.36h-2.82zM7531.1 8065.04a471.6 471.6 0 0 0-91.74-8.98c-31.41 0-62.09 3.1-91.76 8.98-30.47 6.03-59.9 15-87.92 26.63-28.59 11.83-55.79 26.44-81.22 43.44a473.604 473.604 0 0 0-71.35 58.57 474.441 474.441 0 0 0-58.57 71.33c-17 25.45-31.61 52.65-43.44 81.24a466.034 466.034 0 0 0-26.63 87.92c-5.88 29.67-8.96 60.36-8.96 91.76 0 31.39 3.08 62.07 8.96 91.74 6.03 30.48 15.02 59.9 26.63 87.92 11.83 28.59 26.44 55.79 43.44 81.24a474.441 474.441 0 0 0 58.57 71.33 472.395 472.395 0 0 0 71.35 58.57c25.43 17.01 52.63 31.62 81.22 43.45a465.302 465.302 0 0 0 87.92 26.63c29.67 5.88 60.35 8.98 91.76 8.98 31.39 0 62.07-3.1 91.74-8.98 30.47-6.03 59.9-15.01 87.92-26.63 28.61-11.83 55.79-26.44 81.24-43.45a473.228 473.228 0 0 0 71.33-58.57 474.441 474.441 0 0 0 58.57-71.33c17-25.45 31.61-52.65 43.46-81.24a465.764 465.764 0 0 0 26.61-87.92 471.6 471.6 0 0 0 8.98-91.74c0-31.4-3.1-62.09-8.98-91.76-6.03-30.47-15-59.9-26.61-87.92-11.85-28.59-26.46-55.79-43.46-81.24a474.441 474.441 0 0 0-58.57-71.33 474.441 474.441 0 0 0-71.33-58.57c-25.45-17-52.63-31.61-81.24-43.44-28.02-11.63-57.45-20.6-87.92-26.63zm71.92 215.65a297.422 297.422 0 0 1 44.8 36.76 299.098 299.098 0 0 1 36.77 44.8 292.543 292.543 0 0 1 27.24 50.92c7.28 17.6 12.91 36.05 16.7 55.14a297.93 297.93 0 0 1 5.61 57.62c0 19.71-1.94 38.98-5.61 57.6-3.79 19.1-9.42 37.55-16.7 55.14a292.543 292.543 0 0 1-27.24 50.92 298.595 298.595 0 0 1-36.77 44.8 297.486 297.486 0 0 1-44.8 36.77 291.643 291.643 0 0 1-50.9 27.24 294.446 294.446 0 0 1-55.16 16.7 297.801 297.801 0 0 1-57.6 5.61c-19.73 0-38.99-1.94-57.62-5.61a293.798 293.798 0 0 1-55.14-16.7 292.543 292.543 0 0 1-50.92-27.24 298.486 298.486 0 0 1-44.8-36.77 297.985 297.985 0 0 1-36.77-44.8c-10.65-15.94-19.82-32.98-27.24-50.92a293.573 293.573 0 0 1-16.7-55.14 297.724 297.724 0 0 1-5.61-57.6c0-19.72 1.94-38.99 5.61-57.62 3.79-19.09 9.42-37.54 16.7-55.14 7.42-17.94 16.59-34.98 27.24-50.92a298.486 298.486 0 0 1 36.77-44.8 298.421 298.421 0 0 1 44.8-36.76 291.202 291.202 0 0 1 50.92-27.24 292.323 292.323 0 0 1 55.14-16.7 297.07 297.07 0 0 1 57.62-5.62c19.71 0 38.97 1.94 57.6 5.62 19.09 3.78 37.55 9.41 55.16 16.7a290.31 290.31 0 0 1 50.9 27.24zM6249.84 8561.1h176.79c69.24 0 121.72-15.14 156.85-43.39 35.4-28.43 53.41-70.55 53.41-124.15 0-53.6-18.01-95.72-53.41-124.15-35.13-28.25-87.61-43.39-156.85-43.39h-176.79c-3.84 0-7.11 3.25-7.11 7.09v320.9c0 3.84 3.19 7.09 7.11 7.09zm2765.52 149.13 211.37-631.78c.99-2.95 3.63-4.85 6.73-4.85h155.79c2.34 0 4.37 1.02 5.74 2.93 1.39 1.92 1.73 4.16.99 6.39-97.12 293.2-194.23 586.4-291.51 879.56-.99 2.95-3.63 4.85-6.73 4.85h-173.38c-3.1 0-5.75-1.9-6.74-4.85l-204.02-610.92c-.99-2.95-3.62-4.85-6.72-4.87-3.1 0-5.74 1.88-6.75 4.83l-207.6 611c-.99 2.93-3.61 4.81-6.72 4.81h-174.63c-3.12 0-5.77-1.9-6.74-4.87-96.89-293.24-194.11-586.44-291.5-879.52-.74-2.23-.4-4.47.99-6.4 1.37-1.9 3.38-2.94 5.74-2.94h169.62c3.12 0 5.76 1.92 6.73 4.88l205.43 628.04c.95 2.95 3.6 4.87 6.7 4.89 3.12.02 5.76-1.86 6.77-4.81l213.71-628.19c1.01-2.93 3.63-4.81 6.73-4.81h150.77c3.12 0 5.74 1.92 6.73 4.87l209.01 631.74c.99 2.95 3.62 4.85 6.73 4.85 3.11.02 5.77-1.88 6.76-4.83zm761.09-115.25v214.09c0 3.92 3.18 7.11 7.1 7.11h482.12c3.9 0 7.09 3.18 7.09 7.1v136.95c0 3.92-3.19 7.1-7.09 7.1H9606c-3.9 0-7.1-3.18-7.1-7.1v-513.87c0-3.91 3.2-7.11 7.1-7.11 195.69 0 390.55-.02 588.05-.02 3.9 0 7.1 3.2 7.1 7.1v134.44c0 3.92-3.2 7.1-7.1 7.1h-410.5c-3.92 0-7.1 3.19-7.1 7.11zm-177.55-377.33v-136.96c0-3.92 3.2-7.09 7.1-7.09h642.07c3.9 0 7.1 3.17 7.1 7.09v136.96c0 3.92-3.2 7.09-7.1 7.09H9606c-3.9 0-7.1-3.17-7.1-7.09zm1497.5 463.97 192.17 274.54c1.56 2.23 1.74 4.95.48 7.36-1.26 2.4-3.58 3.81-6.3 3.81h-175.81c-2.4 0-4.47-1.07-5.84-3.03l-174.98-250.85c-1.47-2.11-3.73-3.2-6.28-3.03-8.98.59-17.77.59-26.55.59h-184.32c-3.92 0-7.1 3.18-7.1 7.1v242.12c0 3.92-3.19 7.1-7.11 7.1h-163.34c-3.92 0-7.1-3.18-7.1-7.1v-879.54c0-3.92 3.18-7.09 7.1-7.09h361.87c117.53 0 212.87 30.24 278.87 85.38 66.08 55.22 102.66 135.19 102.66 234.58 0 67.7-17.21 126.61-49.59 174.62-29.75 44.13-72.26 78.96-125.9 102.89-2 .89-3.37 2.45-3.96 4.58-.57 2.11-.23 4.17 1.03 5.97zm-54-163.11c35.53-28.74 53.62-71.25 53.62-124.95 0-53.6-18-95.72-53.4-124.15-35.15-28.25-87.63-43.39-156.87-43.39h-176.78c-3.92 0-7.1 3.17-7.1 7.09v322.15c0 3.92 3.18 7.1 7.1 7.1h176.78c69.09 0 121.48-15.39 156.65-43.85z"/><path d="M2757.88 8841.92 3122 8292.97c47.44-71.51 103.26-165.52 155.78-233.81 121.92-158.53 313.52-260.7 528.97-260.7 330.27 0 604.47 240.07 657.61 555.23 2.58 4.63 6.54 6.93 10.62 6.89 4.16-.04 8.43-2.51 11.54-7.41l299.19-421.58c-52.42-95.52-118.42-182.55-195.39-258.48-2.04-2.01-4.08-4.01-6.13-6-201.05-195.33-475.41-315.6-777.86-315.6-390.85 0-734.79 200.86-934.23 504.99-9.98 15.37-19.89 30.78-29.8 46.2-67.44 115.36-114.78 243.9-137.21 380.83-9.69 59.18-14.74 119.92-14.74 181.84 0 133.02 23.27 260.61 65.95 378.91.53-.78 1.06-1.57 1.58-2.36z" class="fil1"/><path d="M5012.94 7611.43c67.27-92.67-10.26-73.48-59.81-57.37l-358.04 116.38c-3.39 1.12-6.23.76-8.96-1.44-1.53-1.46-3.32-2.66-4.98-3.98-119.36-94.78-245.68-159.32-372.09-196.48-547.49-160.95-1096.45 191.7-1087.05 824.43 47.43-71.51 103.24-165.52 155.77-233.81 121.92-158.53 313.52-260.71 528.97-260.71 330.27 0 604.47 240.08 657.61 555.23v.01l.01.02.11.2.04.06.08.14.07.12.06.09.09.15.04.06.12.19.01.01.13.2.02.03.11.16.05.07.09.13.08.1.05.09.11.14.03.04.13.17.01.01.14.18.03.03.12.14.05.07.09.1.09.11.06.06.12.13.03.03.15.16v.01l.15.15.04.03.11.13.07.06.09.09.09.09.07.06.13.11.03.03.16.14.16.14.04.03.12.1.07.05.09.08.1.08.06.04.14.11.03.02.17.12h.01l.16.11.04.04.13.08.07.05.1.05.11.08.06.03.15.09.02.01.17.11h.02l.15.09.06.03.13.07.08.04.09.04.18.08.15.08.03.01.18.08.02.01.16.06.05.03.13.05.09.03.09.03.13.05.05.02.17.06h.02l.17.06h.03l.16.06.06.01.12.03.11.03.08.02.14.04.05.01.18.04.2.04h.02l.16.03.07.01.12.02.11.02.08.01.15.02h.04l.18.02.2.01.03.01.16.01h.07l.12.01.11.01h.46c4.16-.04 8.43-2.51 11.54-7.4 175.47-247.26 350.94-494.5 526.42-741.75z" class="fil2" mask="url(#id0)"/><path d="m2757.87 8841.96 364.14-549c-9.4-632.71 539.56-985.37 1087.06-824.42 129.19 37.98 273.05 112.73 376.04 199.53-207.29-201.9-487.85-316.52-778.79-316.52-390.85 0-734.79 200.86-934.24 504.99a8400.18 8400.18 0 0 0-30.4 47.17c-332.34 518.69-616.28 1063.71-963.67 1586.03-15.24 22.95-5.47 44.93 23.78 37.24 366.86-96.43 651.37-376.43 856.08-685.02z" class="fil1" mask="url(#id2)"/><path d="m4855.2 8091.39-364.12 548.95c-47.43 71.51-103.25 165.52-155.77 233.81-121.93 158.53-313.52 260.7-528.98 260.7-330.27 0-604.47-240.07-657.6-555.23-2.59-4.63-6.54-6.93-10.63-6.89-4.15.05-8.43 2.51-11.53 7.41l-299.2 421.58c52.43 95.52 118.42 182.55 195.39 258.48 2.04 2 4.08 4.01 6.13 6 201.05 195.33 475.41 315.6 777.86 315.6 390.86 0 734.8-200.86 934.24-504.98 9.97-15.38 19.89-30.79 29.78-46.21 67.45-115.36 114.79-243.9 137.23-380.83 9.69-59.18 14.73-119.92 14.73-181.84 0-133.02-23.26-260.61-65.95-378.91-.52.78-1.06 1.57-1.58 2.36z" class="fil1"/><path d="M2600.14 9321.88c-67.27 92.67 10.27 73.48 59.82 57.37l358.03-116.38c3.39-1.13 6.23-.77 8.96 1.44 1.53 1.46 3.33 2.66 4.98 3.98 119.36 94.77 245.68 159.32 372.09 196.48 547.5 160.94 1096.46-191.71 1087.05-824.43-47.42 71.51-103.24 165.52-155.76 233.81-121.93 158.53-313.52 260.71-528.98 260.71-330.26 0-604.46-240.08-657.6-555.23v-.01l-.02-.02-.1-.2-.05-.06-.08-.14-.07-.12-.05-.09-.1-.16-.03-.05-.13-.2-.13-.2-.02-.03-.12-.17-.05-.06-.08-.13-.08-.1-.06-.08-.11-.15-.03-.04-.13-.17-.01-.01-.14-.18-.03-.03-.12-.14-.05-.07-.09-.11-.08-.09-.07-.07-.12-.13-.03-.03-.15-.17-.15-.16-.03-.02-.12-.13-.06-.06-.1-.09-.09-.09-.06-.06-.13-.12-.03-.02-.16-.14-.16-.14-.04-.02-.13-.11-.06-.05-.1-.08-.1-.08-.06-.04-.14-.11-.03-.02-.17-.12-.16-.11-.05-.04-.12-.08-.08-.05-.09-.05-.12-.08-.05-.03-.16-.09-.02-.01-.17-.11h-.01l-.16-.09-.05-.03-.13-.06-.08-.05-.1-.04-.18-.09-.15-.07-.02-.01-.18-.08h-.02l-.17-.07-.05-.03-.12-.05-.09-.03-.1-.04-.13-.04-.05-.02-.16-.06h-.02l-.18-.06h-.02l-.17-.05-.06-.02-.12-.03-.1-.03-.09-.02-.14-.04-.05-.01-.17-.04h-.01l-.19-.04h-.03l-.16-.03-.07-.01-.12-.03-.1-.01-.09-.01-.14-.02h-.04l-.19-.02h-.01l-.18-.01-.04-.01-.16-.01h-.07l-.12-.01-.11-.01h-.46c-4.15.04-8.43 2.51-11.53 7.4-175.48 247.26-350.95 494.49-526.43 741.75z" class="fil2" mask="url(#id4)"/><path d="M4491.07 8640.35c9.41 632.71-539.56 985.36-1087.05 824.42-126.41-37.16-252.73-101.7-372.08-196.48-1.4-1.11-2.9-2.13-4.25-3.31 207.38 202.05 487.95 316.78 779.07 316.78 373.27 0 703.77-183.21 906.46-464.6 20.52-28.48 39.26-58.01 58.18-87.56 332.34-518.69 616.29-1063.7 963.67-1586.03 15.25-22.95 5.48-44.93-23.78-37.24-383.79 100.88-639.51 376.64-854.51 682.7l-365.71 551.32z" class="fil1" mask="url(#id6)"/></g></svg>